<?xml version="1.0" encoding="utf-8"?>
<!-- Generator: Adobe Illustrator 25.0.1, SVG Export Plug-In . SVG Version: 6.00 Build 0)  -->
<svg version="1.1" id="Layer_1" xmlns="http://www.w3.org/2000/svg" xmlns:xlink="http://www.w3.org/1999/xlink" x="0px" y="0px"
	 viewBox="0 0 1061.2 280.1" style="enable-background:new 0 0 1061.2 280.1;" xml:space="preserve">
<style type="text/css">
	.st0{display:none;}
	.st1{fill:#FFFFFF;}
</style>
<rect x="-457.3" y="-860.1" class="st0" width="2000" height="2000"/>
<g>
	<g>
		<path class="st1" d="M332.1,66.9v50.8h31.4v20.5h-31.4v94.1H306v-94.1h-21.1v-20.5H306V66.9H332.1z"/>
		<path class="st1" d="M388.5,65.8c3.1-2.8,6.7-4.2,10.8-4.2c4.1,0,7.6,1.4,10.7,4.2s4.6,6.2,4.6,10.3c0,4.1-1.5,7.5-4.6,10.3
			s-6.6,4.2-10.7,4.2s-7.7-1.4-10.8-4.2c-3.1-2.8-4.7-6.2-4.7-10.3S385.3,68.6,388.5,65.8z M411.5,117.4v114.9h-25.8V117.4H411.5z"
			/>
		<path class="st1" d="M617.3,122.1c6.6,6.3,10,14.6,10.4,25v85.2h-25.8v-75.8c-0.6-13.5-6.7-20.6-18.3-21.4c-6.7,0-12.6,2-17.9,6
			c-5.3,4-9.4,9.2-12.4,15.7s-4.5,13.4-4.7,20.8v54.7h-26.1v-75.8c-0.6-13.5-6.8-20.6-18.9-21.4c-6.5,0-12.4,2-17.6,6
			c-5.3,4-9.4,9.3-12.4,15.8c-3,6.6-4.4,13.6-4.4,21v54.4h-25.8V117.4h23.3l1.9,21.7c4.4-8.3,10.5-14.8,18.2-19.4s16.4-6.9,26.2-6.9
			c9.3,0,17,2.2,23.3,6.5c6.3,4.4,10.4,10.3,12.2,17.9c4.8-7.6,10.9-13.6,18.3-17.9c7.4-4.3,15.4-6.5,23.9-6.5
			C601.9,112.7,610.8,115.8,617.3,122.1z"/>
		<path class="st1" d="M741.3,200.1l11.9,19.2c-6.1,4.1-12.7,7.3-19.8,9.6s-14,3.5-20.7,3.5c-12.8,0-23.9-2.6-33.4-7.9
			c-9.5-5.3-16.9-12.5-22.1-21.8c-5.2-9.3-7.8-19.7-7.8-31.4c0-11.3,2.8-21.6,8.5-31c5.6-9.3,13.4-16.7,23.2-22.2s20.5-8.2,32.2-8.2
			c15,0,27.5,4.4,37.6,13.2s17,21.1,20.7,36.8l-91.1,31.9c3.3,5.7,7.8,10.2,13.5,13.5c5.6,3.2,12.1,4.9,19.3,4.9
			C722.9,210.1,732.2,206.8,741.3,200.1z M685.2,141.6c-6.8,7.4-10.3,16.8-10.3,28.3c0,2.8,0.1,4.9,0.3,6.4l66.9-24.7
			c-2.8-6.3-6.7-11.4-11.8-15.3c-5.1-3.9-11.4-5.8-19-5.8C700.8,130.5,692.1,134.2,685.2,141.6z"/>
		<path class="st1" d="M899.8,114.1l-61.3,118.3h-1.4l-63.9-118.3H804l34.7,73.3l32.2-73.3C870.9,114.1,899.8,114.1,899.8,114.1z"/>
		<path class="st1" d="M1044.3,206.2v26.1H919.9l9.2-9.2c18.9-18.9,33.6-34.1,44.1-45.8s19.4-23.5,26.5-35.4
			c7.1-11.9,10.7-23.3,10.7-34c0-11.3-3.3-19.9-10-25.8s-14.8-8.9-24.4-8.9c-7.6,0-13.9,1.6-19,4.7s-8.8,7.1-11.1,11.9
			s-3.5,9.6-3.5,14.4c0,11.8,3.6,21.6,10.8,29.1l-16.4,15c-6.1-3.7-11.1-10-14.9-18.7c-3.8-8.8-5.7-17.1-5.7-24.8
			c0-10.2,2.5-19.7,7.6-28.5s12.4-15.8,22.1-21.1c9.6-5.3,21.1-7.9,34.4-7.9c11.3,0,21.3,2.6,30.1,7.9s15.6,12.4,20.4,21.2
			c4.8,8.9,7.2,18.6,7.2,29.1s-2.5,21.1-7.5,31.6s-11.2,20.5-18.5,29.7c-7.3,9.3-17.1,20.7-29.3,34.4l-4.2,4.7h65.8V206.2z"/>
	</g>
	<g>
		<g>
			<g>
				<path class="st1" d="M115,104.5c-1,0.5-1.9,1.2-2.7,1.9l-0.4,0.3l0,0c-3.1,2.8-5,6.8-5,11.3c0,8.5,6.9,15.4,15.4,15.4
					c6.7,0,12.4-4.4,14.5-10.4l22.3-48.9L115,104.5z M122.3,125.3c-4,0-7.2-3.2-7.2-7.2c0-3.9,3.2-7.2,7.2-7.2s7.2,3.2,7.2,7.2
					C129.5,122.1,126.3,125.3,122.3,125.3z"/>
			</g>
			<g>
				<path class="st1" d="M160.1,16.9c-11.8-4.4-24.5-6.9-37.8-6.9C62.7,9.9,14.2,58.4,14.2,118c0,30.9,9.8,55.4,30,74.8l3.5,3.5
					l74.6,73.6l19.6-19.5l-75-74.1c-0.9-0.8-1.8-1.8-2.6-2.6l-0.3-0.3c-0.9-0.8-1.7-1.9-2.6-2.7l0.1-0.1
					c-12.2-14.1-19.7-32.5-19.7-52.6c0-11.1,2.3-21.6,6.3-31.2v0.1v-0.1c0,0,0-0.1,0.1-0.1c0.2-0.4,1-2.2,2.5-5.1
					c0.7-1.4,1.5-2.8,2.3-4.1c0.7-1.2,1.5-2.5,2.3-3.8c0.1-0.2,0.2-0.4,0.4-0.6C68.8,52.4,100.3,16.6,160.1,16.9z"/>
				<path class="st1" d="M180.3,27c-23.4,0.9-42.3,5-57.6,10.6c44.2,0.2,80.1,36.1,80.1,80.4c0,44.4-36.1,80.4-80.5,80.4
					c-4.9,0-9.8-0.5-14.5-1.4l44.1,43.6l48.9-48.3c20.3-19.5,29.7-43,29.7-74.4C230.5,79.7,210.4,46.2,180.3,27z"/>
			</g>
		</g>
	</g>
</g>
</svg>
